<svg xmlns="http://www.w3.org/2000/svg" viewBox="0 0 440 480" width="440" height="480">
  <!-- Background -->
  <rect width="440" height="480" fill="#0d1117" rx="10"/>

  <!-- Title -->
  <text x="220" y="28" font-family="monospace" font-size="14" fill="#34D399" text-anchor="middle" font-weight="bold">♟ Play Chess Against Faruk</text>

  <!-- Board border -->
  <rect x="20" y="38" width="400" height="400" rx="4" fill="#0a3d2e" stroke="#34D399" stroke-width="1.5"/>

  <!-- Squares -->
  <!-- Row 8 (top) -->
  <rect x="20"  y="38"  width="50" height="50" fill="#0a3d2e"/>
  <rect x="70"  y="38"  width="50" height="50" fill="#34D399"/>
  <rect x="120" y="38"  width="50" height="50" fill="#0a3d2e"/>
  <rect x="170" y="38"  width="50" height="50" fill="#34D399"/>
  <rect x="220" y="38"  width="50" height="50" fill="#0a3d2e"/>
  <rect x="270" y="38"  width="50" height="50" fill="#34D399"/>
  <rect x="320" y="38"  width="50" height="50" fill="#0a3d2e"/>
  <rect x="370" y="38"  width="50" height="50" fill="#34D399"/>
  <!-- Row 7 -->
  <rect x="20"  y="88"  width="50" height="50" fill="#34D399"/>
  <rect x="70"  y="88"  width="50" height="50" fill="#0a3d2e"/>
  <rect x="120" y="88"  width="50" height="50" fill="#34D399"/>
  <rect x="170" y="88"  width="50" height="50" fill="#0a3d2e"/>
  <rect x="220" y="88"  width="50" height="50" fill="#34D399"/>
  <rect x="270" y="88"  width="50" height="50" fill="#0a3d2e"/>
  <rect x="320" y="88"  width="50" height="50" fill="#34D399"/>
  <rect x="370" y="88"  width="50" height="50" fill="#0a3d2e"/>
  <!-- Row 6 -->
  <rect x="20"  y="138" width="50" height="50" fill="#0a3d2e"/>
  <rect x="70"  y="138" width="50" height="50" fill="#34D399"/>
  <rect x="120" y="138" width="50" height="50" fill="#0a3d2e"/>
  <rect x="170" y="138" width="50" height="50" fill="#34D399"/>
  <rect x="220" y="138" width="50" height="50" fill="#0a3d2e"/>
  <rect x="270" y="138" width="50" height="50" fill="#34D399"/>
  <rect x="320" y="138" width="50" height="50" fill="#0a3d2e"/>
  <rect x="370" y="138" width="50" height="50" fill="#34D399"/>
  <!-- Row 5 -->
  <rect x="20"  y="188" width="50" height="50" fill="#34D399"/>
  <rect x="70"  y="188" width="50" height="50" fill="#0a3d2e"/>
  <rect x="120" y="188" width="50" height="50" fill="#34D399"/>
  <rect x="170" y="188" width="50" height="50" fill="#0a3d2e"/>
  <rect x="220" y="188" width="50" height="50" fill="#34D399"/>
  <rect x="270" y="188" width="50" height="50" fill="#0a3d2e"/>
  <rect x="320" y="188" width="50" height="50" fill="#34D399"/>
  <rect x="370" y="188" width="50" height="50" fill="#0a3d2e"/>
  <!-- Row 4 -->
  <rect x="20"  y="238" width="50" height="50" fill="#0a3d2e"/>
  <rect x="70"  y="238" width="50" height="50" fill="#34D399"/>
  <rect x="120" y="238" width="50" height="50" fill="#0a3d2e"/>
  <rect x="170" y="238" width="50" height="50" fill="#34D399"/>
  <rect x="220" y="238" width="50" height="50" fill="#0a3d2e"/>
  <rect x="270" y="238" width="50" height="50" fill="#34D399"/>
  <rect x="320" y="238" width="50" height="50" fill="#0a3d2e"/>
  <rect x="370" y="238" width="50" height="50" fill="#34D399"/>
  <!-- Row 3 -->
  <rect x="20"  y="288" width="50" height="50" fill="#34D399"/>
  <rect x="70"  y="288" width="50" height="50" fill="#0a3d2e"/>
  <rect x="120" y="288" width="50" height="50" fill="#34D399"/>
  <rect x="170" y="288" width="50" height="50" fill="#0a3d2e"/>
  <rect x="220" y="288" width="50" height="50" fill="#34D399"/>
  <rect x="270" y="288" width="50" height="50" fill="#0a3d2e"/>
  <rect x="320" y="288" width="50" height="50" fill="#34D399"/>
  <rect x="370" y="288" width="50" height="50" fill="#0a3d2e"/>
  <!-- Row 2 -->
  <rect x="20"  y="338" width="50" height="50" fill="#0a3d2e"/>
  <rect x="70"  y="338" width="50" height="50" fill="#34D399"/>
  <rect x="120" y="338" width="50" height="50" fill="#0a3d2e"/>
  <rect x="170" y="338" width="50" height="50" fill="#34D399"/>
  <rect x="220" y="338" width="50" height="50" fill="#0a3d2e"/>
  <rect x="270" y="338" width="50" height="50" fill="#34D399"/>
  <rect x="320" y="338" width="50" height="50" fill="#0a3d2e"/>
  <rect x="370" y="338" width="50" height="50" fill="#34D399"/>
  <!-- Row 1 -->
  <rect x="20"  y="388" width="50" height="50" fill="#34D399"/>
  <rect x="70"  y="388" width="50" height="50" fill="#0a3d2e"/>
  <rect x="120" y="388" width="50" height="50" fill="#34D399"/>
  <rect x="170" y="388" width="50" height="50" fill="#0a3d2e"/>
  <rect x="220" y="388" width="50" height="50" fill="#34D399"/>
  <rect x="270" y="388" width="50" height="50" fill="#0a3d2e"/>
  <rect x="320" y="388" width="50" height="50" fill="#34D399"/>
  <rect x="370" y="388" width="50" height="50" fill="#0a3d2e"/>

  <!-- Rank labels (left) -->
  <text x="10" y="70"  font-family="monospace" font-size="11" fill="#34D399" text-anchor="middle">8</text>
  <text x="10" y="120" font-family="monospace" font-size="11" fill="#34D399" text-anchor="middle">7</text>
  <text x="10" y="170" font-family="monospace" font-size="11" fill="#34D399" text-anchor="middle">6</text>
  <text x="10" y="220" font-family="monospace" font-size="11" fill="#34D399" text-anchor="middle">5</text>
  <text x="10" y="270" font-family="monospace" font-size="11" fill="#34D399" text-anchor="middle">4</text>
  <text x="10" y="320" font-family="monospace" font-size="11" fill="#34D399" text-anchor="middle">3</text>
  <text x="10" y="370" font-family="monospace" font-size="11" fill="#34D399" text-anchor="middle">2</text>
  <text x="10" y="420" font-family="monospace" font-size="11" fill="#34D399" text-anchor="middle">1</text>

  <!-- File labels (bottom) -->
  <text x="45"  y="452" font-family="monospace" font-size="11" fill="#34D399" text-anchor="middle">a</text>
  <text x="95"  y="452" font-family="monospace" font-size="11" fill="#34D399" text-anchor="middle">b</text>
  <text x="145" y="452" font-family="monospace" font-size="11" fill="#34D399" text-anchor="middle">c</text>
  <text x="195" y="452" font-family="monospace" font-size="11" fill="#34D399" text-anchor="middle">d</text>
  <text x="245" y="452" font-family="monospace" font-size="11" fill="#34D399" text-anchor="middle">e</text>
  <text x="295" y="452" font-family="monospace" font-size="11" fill="#34D399" text-anchor="middle">f</text>
  <text x="345" y="452" font-family="monospace" font-size="11" fill="#34D399" text-anchor="middle">g</text>
  <text x="395" y="452" font-family="monospace" font-size="11" fill="#34D399" text-anchor="middle">h</text>

  <!-- ========== PIECES ========== -->
  <!-- Black pieces — Row 8 -->
  <text x="45"  y="78"  font-size="36" text-anchor="middle" font-family="serif" fill="#1a1a2e">♜</text>
  <text x="95"  y="78"  font-size="36" text-anchor="middle" font-family="serif" fill="#1a1a2e">♞</text>
  <text x="145" y="78"  font-size="36" text-anchor="middle" font-family="serif" fill="#1a1a2e">♝</text>
  <text x="195" y="78"  font-size="36" text-anchor="middle" font-family="serif" fill="#1a1a2e">♛</text>
  <text x="245" y="78"  font-size="36" text-anchor="middle" font-family="serif" fill="#1a1a2e">♚</text>
  <text x="295" y="78"  font-size="36" text-anchor="middle" font-family="serif" fill="#1a1a2e">♝</text>
  <text x="345" y="78"  font-size="36" text-anchor="middle" font-family="serif" fill="#1a1a2e">♞</text>
  <text x="395" y="78"  font-size="36" text-anchor="middle" font-family="serif" fill="#1a1a2e">♜</text>
  <!-- Black pawns — Row 7 -->
  <text x="45"  y="128" font-size="34" text-anchor="middle" font-family="serif" fill="#1a1a2e">♟</text>
  <text x="95"  y="128" font-size="34" text-anchor="middle" font-family="serif" fill="#1a1a2e">♟</text>
  <text x="145" y="128" font-size="34" text-anchor="middle" font-family="serif" fill="#1a1a2e">♟</text>
  <text x="195" y="128" font-size="34" text-anchor="middle" font-family="serif" fill="#1a1a2e">♟</text>
  <text x="245" y="128" font-size="34" text-anchor="middle" font-family="serif" fill="#1a1a2e">♟</text>
  <text x="295" y="128" font-size="34" text-anchor="middle" font-family="serif" fill="#1a1a2e">♟</text>
  <text x="345" y="128" font-size="34" text-anchor="middle" font-family="serif" fill="#1a1a2e">♟</text>
  <text x="395" y="128" font-size="34" text-anchor="middle" font-family="serif" fill="#1a1a2e">♟</text>
  <!-- White pawns — Row 2 -->
  <text x="45"  y="378" font-size="34" text-anchor="middle" font-family="serif" fill="#ffffff">♙</text>
  <text x="95"  y="378" font-size="34" text-anchor="middle" font-family="serif" fill="#ffffff">♙</text>
  <text x="145" y="378" font-size="34" text-anchor="middle" font-family="serif" fill="#ffffff">♙</text>
  <text x="195" y="378" font-size="34" text-anchor="middle" font-family="serif" fill="#ffffff">♙</text>
  <text x="245" y="378" font-size="34" text-anchor="middle" font-family="serif" fill="#ffffff">♙</text>
  <text x="295" y="378" font-size="34" text-anchor="middle" font-family="serif" fill="#ffffff">♙</text>
  <text x="345" y="378" font-size="34" text-anchor="middle" font-family="serif" fill="#ffffff">♙</text>
  <text x="395" y="378" font-size="34" text-anchor="middle" font-family="serif" fill="#ffffff">♙</text>
  <!-- White pieces — Row 1 -->
  <text x="45"  y="428" font-size="36" text-anchor="middle" font-family="serif" fill="#ffffff">♖</text>
  <text x="95"  y="428" font-size="36" text-anchor="middle" font-family="serif" fill="#ffffff">♘</text>
  <text x="145" y="428" font-size="36" text-anchor="middle" font-family="serif" fill="#ffffff">♗</text>
  <text x="195" y="428" font-size="36" text-anchor="middle" font-family="serif" fill="#ffffff">♕</text>
  <text x="245" y="428" font-size="36" text-anchor="middle" font-family="serif" fill="#ffffff">♔</text>
  <text x="295" y="428" font-size="36" text-anchor="middle" font-family="serif" fill="#ffffff">♗</text>
  <text x="345" y="428" font-size="36" text-anchor="middle" font-family="serif" fill="#ffffff">♘</text>
  <text x="395" y="428" font-size="36" text-anchor="middle" font-family="serif" fill="#ffffff">♖</text>

  <!-- Footer -->
  <text x="220" y="472" font-family="monospace" font-size="11" fill="#555" text-anchor="middle">⬛ Black = Faruk (Bot)  |  ⬜ White = You</text>
</svg>
