<svg xmlns="http://www.w3.org/2000/svg" viewBox="0 0 400 400" width="400" height="400"><rect width="400" height="400" fill="#0d1117"/><rect x="0" y="0" width="50" height="50" fill="#34D399"/><text x="25" y="35" font-size="32" text-anchor="middle" fill="#0d1117">♜</text><rect x="50" y="0" width="50" height="50" fill="#0a3d2e"/><rect x="100" y="0" width="50" height="50" fill="#34D399"/><text x="125" y="35" font-size="32" text-anchor="middle" fill="#0d1117">♝</text><rect x="150" y="0" width="50" height="50" fill="#0a3d2e"/><text x="175" y="35" font-size="32" text-anchor="middle" fill="#0d1117">♛</text><rect x="200" y="0" width="50" height="50" fill="#34D399"/><text x="225" y="35" font-size="32" text-anchor="middle" fill="#0d1117">♚</text><rect x="250" y="0" width="50" height="50" fill="#0a3d2e"/><text x="275" y="35" font-size="32" text-anchor="middle" fill="#0d1117">♝</text><rect x="300" y="0" width="50" height="50" fill="#34D399"/><text x="325" y="35" font-size="32" text-anchor="middle" fill="#0d1117">♞</text><rect x="350" y="0" width="50" height="50" fill="#0a3d2e"/><text x="375" y="35" font-size="32" text-anchor="middle" fill="#0d1117">♜</text><rect x="0" y="50" width="50" height="50" fill="#0a3d2e"/><text x="25" y="85" font-size="32" text-anchor="middle" fill="#0d1117">♟</text><rect x="50" y="50" width="50" height="50" fill="#34D399"/><text x="75" y="85" font-size="32" text-anchor="middle" fill="#0d1117">♟</text><rect x="100" y="50" width="50" height="50" fill="#0a3d2e"/><text x="125" y="85" font-size="32" text-anchor="middle" fill="#0d1117">♟</text><rect x="150" y="50" width="50" height="50" fill="#34D399"/><text x="175" y="85" font-size="32" text-anchor="middle" fill="#0d1117">♟</text><rect x="200" y="50" width="50" height="50" fill="#0a3d2e"/><text x="225" y="85" font-size="32" text-anchor="middle" fill="#0d1117">♟</text><rect x="250" y="50" width="50" height="50" fill="#34D399"/><text x="275" y="85" font-size="32" text-anchor="middle" fill="#0d1117">♟</text><rect x="300" y="50" width="50" height="50" fill="#0a3d2e"/><text x="325" y="85" font-size="32" text-anchor="middle" fill="#0d1117">♟</text><rect x="350" y="50" width="50" height="50" fill="#34D399"/><text x="375" y="85" font-size="32" text-anchor="middle" fill="#0d1117">♟</text><rect x="0" y="100" width="50" height="50" fill="#34D399"/><rect x="50" y="100" width="50" height="50" fill="#0a3d2e"/><rect x="100" y="100" width="50" height="50" fill="#34D399"/><text x="125" y="135" font-size="32" text-anchor="middle" fill="#0d1117">♞</text><rect x="150" y="100" width="50" height="50" fill="#0a3d2e"/><rect x="200" y="100" width="50" height="50" fill="#34D399"/><rect x="250" y="100" width="50" height="50" fill="#0a3d2e"/><rect x="300" y="100" width="50" height="50" fill="#34D399"/><rect x="350" y="100" width="50" height="50" fill="#0a3d2e"/><rect x="0" y="150" width="50" height="50" fill="#0a3d2e"/><rect x="50" y="150" width="50" height="50" fill="#34D399"/><rect x="100" y="150" width="50" height="50" fill="#0a3d2e"/><rect x="150" y="150" width="50" height="50" fill="#34D399"/><rect x="200" y="150" width="50" height="50" fill="#0a3d2e"/><rect x="250" y="150" width="50" height="50" fill="#34D399"/><rect x="300" y="150" width="50" height="50" fill="#0a3d2e"/><rect x="350" y="150" width="50" height="50" fill="#34D399"/><rect x="0" y="200" width="50" height="50" fill="#34D399"/><rect x="50" y="200" width="50" height="50" fill="#0a3d2e"/><rect x="100" y="200" width="50" height="50" fill="#34D399"/><rect x="150" y="200" width="50" height="50" fill="#0a3d2e"/><rect x="200" y="200" width="50" height="50" fill="#34D399"/><rect x="250" y="200" width="50" height="50" fill="#0a3d2e"/><rect x="300" y="200" width="50" height="50" fill="#34D399"/><rect x="350" y="200" width="50" height="50" fill="#0a3d2e"/><rect x="0" y="250" width="50" height="50" fill="#0a3d2e"/><text x="25" y="285" font-size="32" text-anchor="middle" fill="#ffffff">♙</text><rect x="50" y="250" width="50" height="50" fill="#34D399"/><rect x="100" y="250" width="50" height="50" fill="#0a3d2e"/><rect x="150" y="250" width="50" height="50" fill="#34D399"/><rect x="200" y="250" width="50" height="50" fill="#0a3d2e"/><rect x="250" y="250" width="50" height="50" fill="#34D399"/><rect x="300" y="250" width="50" height="50" fill="#0a3d2e"/><rect x="350" y="250" width="50" height="50" fill="#34D399"/><rect x="0" y="300" width="50" height="50" fill="#34D399"/><rect x="50" y="300" width="50" height="50" fill="#0a3d2e"/><text x="75" y="335" font-size="32" text-anchor="middle" fill="#ffffff">♙</text><rect x="100" y="300" width="50" height="50" fill="#34D399"/><text x="125" y="335" font-size="32" text-anchor="middle" fill="#ffffff">♙</text><rect x="150" y="300" width="50" height="50" fill="#0a3d2e"/><text x="175" y="335" font-size="32" text-anchor="middle" fill="#ffffff">♙</text><rect x="200" y="300" width="50" height="50" fill="#34D399"/><text x="225" y="335" font-size="32" text-anchor="middle" fill="#ffffff">♙</text><rect x="250" y="300" width="50" height="50" fill="#0a3d2e"/><text x="275" y="335" font-size="32" text-anchor="middle" fill="#ffffff">♙</text><rect x="300" y="300" width="50" height="50" fill="#34D399"/><text x="325" y="335" font-size="32" text-anchor="middle" fill="#ffffff">♙</text><rect x="350" y="300" width="50" height="50" fill="#0a3d2e"/><text x="375" y="335" font-size="32" text-anchor="middle" fill="#ffffff">♙</text><rect x="0" y="350" width="50" height="50" fill="#0a3d2e"/><text x="25" y="385" font-size="32" text-anchor="middle" fill="#ffffff">♖</text><rect x="50" y="350" width="50" height="50" fill="#34D399"/><text x="75" y="385" font-size="32" text-anchor="middle" fill="#ffffff">♘</text><rect x="100" y="350" width="50" height="50" fill="#0a3d2e"/><text x="125" y="385" font-size="32" text-anchor="middle" fill="#ffffff">♗</text><rect x="150" y="350" width="50" height="50" fill="#34D399"/><text x="175" y="385" font-size="32" text-anchor="middle" fill="#ffffff">♕</text><rect x="200" y="350" width="50" height="50" fill="#0a3d2e"/><text x="225" y="385" font-size="32" text-anchor="middle" fill="#ffffff">♔</text><rect x="250" y="350" width="50" height="50" fill="#34D399"/><text x="275" y="385" font-size="32" text-anchor="middle" fill="#ffffff">♗</text><rect x="300" y="350" width="50" height="50" fill="#0a3d2e"/><text x="325" y="385" font-size="32" text-anchor="middle" fill="#ffffff">♘</text><rect x="350" y="350" width="50" height="50" fill="#34D399"/><text x="375" y="385" font-size="32" text-anchor="middle" fill="#ffffff">♖</text></svg>